<svg xmlns="http://www.w3.org/2000/svg" viewBox="0 0 1200 630" width="1200" height="630">
<defs>
<linearGradient id="bg" x1="0" y1="0" x2="1" y2="1">
<stop offset="0%" stop-color="#0a1128"/>
<stop offset="100%" stop-color="#001f54"/>
</linearGradient>
<linearGradient id="accent" x1="0" y1="0" x2="1" y2="1">
<stop offset="0%" stop-color="#ffb400"/>
<stop offset="100%" stop-color="#ff6b35"/>
</linearGradient>
<radialGradient id="glow" cx="50%" cy="50%" r="50%">
<stop offset="0%" stop-color="#ffb400" stop-opacity="0.2"/>
<stop offset="100%" stop-color="#ffb400" stop-opacity="0"/>
</radialGradient>
<filter id="shadow" x="-20%" y="-20%" width="140%" height="140%">
<feDropShadow dx="0" dy="8" stdDeviation="16" flood-color="#000" flood-opacity="0.5"/>
</filter>
</defs>
<rect width="1200" height="630" fill="url(#bg)"/>
<circle cx="1050" cy="150" r="280" fill="url(#glow)"/>
<circle cx="180" cy="520" r="260" fill="url(#glow)"/>
<g transform="translate(120, 200)" filter="url(#shadow)">
<rect x="0" y="0" width="160" height="160" rx="28" fill="url(#accent)"/>
<g transform="translate(20,20)" color="#0a1128"><rect x="28" y="35" width="64" height="52" rx="6" fill="currentColor"/><path d="M 28 50 L 92 50 M 60 35 L 60 87" stroke="#fff" stroke-width="4"/><circle cx="60" cy="35" r="8" fill="currentColor" stroke="#fff" stroke-width="3"/></g>
</g>
<text x="340" y="245" font-family="'Helvetica Neue', Arial, sans-serif" font-weight="900" font-size="72" fill="#ffffff" letter-spacing="-1">1win Фрибет</text>
<text x="340" y="305" font-family="'Helvetica Neue', Arial, sans-serif" font-weight="500" font-size="28" fill="#ffb400">Как получить 2026</text>
<rect x="340" y="335" width="240" height="4" fill="url(#accent)"/>
<g transform="translate(340, 410)">
<rect x="0" y="0" width="280" height="60" rx="30" fill="url(#accent)"/>
<text x="140" y="40" font-family="'Helvetica Neue', Arial, sans-serif" font-weight="800" font-size="20" fill="#0a1128" text-anchor="middle">+500% БОНУС</text>
</g>
<text x="340" y="520" font-family="'Helvetica Neue', Arial, sans-serif" font-weight="500" font-size="22" fill="#ff6b35">CasinoBlog.ru · 2026</text>
</svg>